<?xml version="1.0" encoding="UTF-8"?>
<svg width="389.14" height="320" version="1.1" viewBox="0 0 389.14 320" xmlns="http://www.w3.org/2000/svg">
 <path d="m66.861 127.21c-0.1375 0.0206-0.26469 0.69078-0.38281 2-0.18 2.11-0.32164 5.8801-0.43164 11.33-0.12 7.56-0.19922 18.28-0.19922 30.17v0.52927c0 23.68 0.22977 42.971 0.50977 42.971 0.55 0 26.529-12.89 27.359-13.57 0.01-0.01 0.0115-0.0193 0.0215-0.0293 0.04-0.37-1.15-4.0506-3-9.3106-0.94-2.29-1.8016-4.0898-2.1016-4.0898-0.4 0-0.4682-0.79-0.1582-1.75 0.03-0.1 0.0501-0.17953 0.0801-0.26953-0.06-0.17-0.13141-0.34953-0.19141-0.51953-0.32-0.88-0.64047-1.7719-0.98047-2.6719-3.69-10.06-9.0998-25.269-12.01-33.789-2.6932-7.8677-5.4757-15.476-5.4356-15.398-1.5218-4.0019-2.3624-5.6016-3.0742-5.6016-1e-3 0-3e-3 4e-5 -4e-3 0zm2.9316 5.3184c-369.95-425.32-369.95-425.32 0 0zm6.0566 17.881c0.0573 0.12096 0.0973 0.16192 0.15625 0.29101 0.23183 0.50797 0.47207 1.0706 0.7168 1.6719-0.30435-0.74775-0.5911-1.3647-0.87305-1.9629zm10.506 35.518h2e-3l2.1855 5.3242z"/>
 <g transform="translate(-300.15 -292.79)">
  <g transform="matrix(1.0174 0 0 1.0174 -5.3902 -5.2623)">
   <path d="m568.05 421c-0.02 0.01-0.05 0.02-0.08 0.03 0.03-0.02 0.05-0.03 0.08-0.03z"/>
   <path d="m498.65 576.41c-0.2-0.02-0.42-0.06-0.65-0.12 0.22 0.06 0.44 0.09 0.65 0.12z"/>
   <path d="m371.25 512.66c-0.14 0.12-0.22 0.22-0.23 0.29v-0.03c-0.01-0.05 0.08-0.14 0.23-0.26z"/>
   <path d="m392.74 378.46c-0.17 0.1-0.34 0.19-0.51 0.29 0.63-0.36 1.25-0.72 1.88-1.07-0.48 0.28-0.94 0.54-1.37 0.78z"/>
   <path d="m398.9 485c-0.28 0-1-1.27-1.73-3 0.73 1.72 1.44 2.98 1.73 3z"/>
   <path d="m394.45 433.69c0.13 0.42 0.32 0.88 0.56 1.33-0.27-0.51-0.46-0.94-0.56-1.33z"/>
   <path d="m523.13 536.85c4.39-2.35 8.7-4.68 12.16-6.57-3.49 1.91-7.82 4.25-12.16 6.57z"/>
   <path d="m331 306.77-0.01-3.97h0.01z"/>
   <path d="m614.33 450.51c-0.16 0.19-0.48 0.45-0.91 0.77 0.35-0.26 0.6-0.48 0.7-0.62 0.04-0.05 0.11-0.1 0.21-0.15z"/>
   <path d="m364.44 396.19 0.01-0.02c0.58-0.5 1.52-1.2 2.76-2.07-1.1 0.79-2.03 1.48-2.77 2.09z"/>
   <path d="m572.27 397.16c-1.09-1.14-8.51-6.05-18.34-12.2 9.83 6.15 17.24 11.05 18.32 12.18l0.02 0.02z"/>
   <path d="m399.66 484c1.21-1.88 3.72-6.22 6.76-11.68-2.99 5.4-5.53 9.79-6.76 11.68z"/>
   <path d="m422.91 543.13c-3.81-2.09-7.39-4.05-9.41-5.14-2.43-1.31-4.73-2.55-6.9-3.72 2.17 1.17 4.47 2.41 6.9 3.71 2.11 1.14 5.72 3.11 9.41 5.15z"/>
   <path d="m393.75 438.31c0.76 0.36 1.37 0.19 1.67-0.34-0.3 0.6-0.93 0.8-1.67 0.34z"/>
   <path d="m555.5 526.21c-6.68 3.78-11.27 6.45-11.5 6.72 0.24-0.29 4.35-2.69 11.5-6.72z"/>
   <path d="m554.83 500.43c-6.32-3.17-11.84-6.23-13.1-7.22 1.26 0.99 6.78 4.04 13.1 7.21l3.07 1.54c-0.98-0.49-2.01-1-3.07-1.53z"/>
   <path d="m409.55 410c4.18 0 7.9 1.84 10.36 4.51-2.45-2.62-6.16-4.51-10.36-4.51z"/>
   <path d="m370 403.8v-0.04c0-0.37 2.25-1.29 5.13-2.22-2.82 0.92-5.01 1.84-5.13 2.26z"/>
   <path d="m371.51 513.93c1.14 1.29 4.45 3.45 12.14 7.79-7.84-4.42-11.03-6.51-12.14-7.79z"/>
   <path d="m513.5 445c-0.34 0.55-0.22 1 0.27 1-0.49 0-0.63-0.41-0.32-0.91 0.24-0.4 0.19-0.83-0.09-1.08 0.39 0.05 0.46 0.48 0.14 0.99z"/>
   <path d="m647.02 437.22c-2.1 2.37-4.54 4.55-6.72 5.89 2.17-1.34 4.73-3.67 6.72-5.89z"/>
   <path d="m537.9 480.87c-0.67 2.06-1.49 3.93-1.86 4.25-0.24 0.21-0.41 0.32-0.48 0.32 0.07 0 0.24-0.11 0.47-0.32 0.32-0.27 1.08-2.03 1.87-4.25z"/>
   <path d="m397.67 522.33c0.33 0.34 1.12 0.62 1.81 0.66-0.62 0.05-1.3-0.15-1.81-0.66-0.53-0.52-0.72-1.24-0.66-2.01-0.03 0.8 0.17 1.53 0.66 2.01z"/>
   <path d="m623.06 450.23c1.86-0.05 3.02-0.37 3.93-1.04-1.02 0.76-2.34 1.11-3.93 1.04z"/>
   <path d="m652.82 418.98c-0.27-2.82-0.85-5.65-1.68-7.49 0.88 1.96 1.45 4.66 1.68 7.49z"/>
   <path d="m481.81 483.15c1.72-0.01 2.91-0.15 3.02-0.4 0.07-0.15 0.19-0.29 0.33-0.41-0.1 0.12-0.16 0.26-0.16 0.41 0 0.27-1.28 0.41-3.19 0.4z"/>
   <path d="m484.73 558.09c-1.4 0.67-1.72 0.61-1.7 0.2 0.01 0.29 0.7 0.19 1.7-0.2z"/>
   <path d="m317 333.39v-0.08c0-0.65 1.69-1.33 3.75-1.5 1.87-0.15 2.84-0.35 3.38-0.95-0.53 0.59-1.48 0.79-3.28 0.94-2.14 0.18-3.4 0.7-3.85 1.59z"/>
   <path d="m408.14 485.01c0.11-0.1 0.21-0.18 0.3-0.24 0.15-0.11 0.27-0.2 0.35-0.29 0.2 0.29-0.03 0.52-0.58 0.52-0.02 0-0.04 0-0.07 0.01z"/>
   <path d="m368.5 520.73c7.48 3.75 33.84 18.45 34.5 19.24-0.66-0.79-27.23-15.6-34-18.96-0.38-0.19-0.77-0.39-1.16-0.61 0.21 0.11 0.43 0.21 0.66 0.33z"/>
   <path d="m457.91 596.6c-4.28-1.65-7.3-3.14-10.08-5.07 2.78 1.88 6.03 3.51 10.12 5.09 0.11 0.04 0.23 0.08 0.35 0.12-0.14-0.04-0.27-0.09-0.39-0.14z"/>
   <path d="m527.18 491.36c-6.02 0.49-22.8 0.64-60.18 0.64 36.88 0 54.03-0.16 60.18-0.64z"/>
   <path d="m526.08 422.81c0.86-0.55 1.82-1.14 2.92-1.8 1.35-0.82 2.67-1.62 3.86-2.36-1.71 1.1-3.93 2.46-6.78 4.16z"/>
   <path d="m512.81 458.45c-3.42-6.2-6.34-11.52-7.75-14.14 1.55 2.81 2.98 5.42 4.22 7.69 1.12 2.06 2.31 4.24 3.53 6.45z"/>
   <path d="m398.91 429.14c2.09 0.35 3.86 3.93 5.65 11.11-1.77-7.08-3.53-10.57-5.65-11.11z"/>
   <path d="m408.62 483.99c-0.34-0.28 0.86-2.83 2.26-5.29-1.17 2.14-2.19 4.38-2.26 5.29z"/>
   <path d="m404.56 440.25c1.22 4.9 2.3 7.06 3.75 6.53-0.16 0.1-0.31 0.15-0.44 0.15-1.19 0.05-2.08-1.73-3.31-6.68z"/>
   <path d="m412.5 440.83c0.13-0.27 0.26-0.52 0.38-0.77 0.52-1.06 0.97-1.96 1.34-2.72-0.69 1.7-1.67 3.63-2.66 5.32 0.3-0.56 0.61-1.17 0.94-1.83z"/>
   <path d="m455.24 383.59c2.13-3.81 3.61-6.58 3.75-6.99 0.01 0.01 0.01 0.02 0.01 0.03 0 0.28-1.68 3.39-3.76 6.96z"/>
   <path d="m529.83 409.64c-0.41 0.42-0.38 1.02 0.12 1.68-1.09-0.96-1.09-1.25-0.12-1.68z"/>
   <path d="m518.19 539.48c-7.25 3.86-15.33 8.29-20.2 11.05 2.66-1.59 11.34-6.34 20.2-11.05z"/>
   <path d="m606.06 424.06c-0.05-1.53 0-3.2 0.13-5.01 0.3-4.12 1.63-7.78 3.81-10.8-2.22 3.13-3.55 6.96-3.82 11.33-0.1 1.56-0.14 3.13-0.12 4.48z"/>
   <path d="m449 557.11c0 0.1 0.01 0.19 0.02 0.28-0.35-0.16-0.8-0.41-1.3-0.72 0.04-0.02 0.08-0.05 0.13-0.07 0.63-0.4 1.15-0.17 1.15 0.51z"/>
   <path d="m409.16 574.84c-6.56-1.65-13.74-3.39-20.96-5.07 8.09 1.82 15.35 3.57 20.96 5.07z"/>
   <path d="m346.12 561.11c-6.75-1.2-14.44-2.55-20.95-3.67 6.21 0.99 13.38 2.25 20.95 3.67z"/>
   <path d="m538.16 413.41c-0.72-1.2-2.3-2.7-3.81-3.6 1.5 0.64 2.88 1.76 3.59 3.09 0.1 0.17 0.17 0.34 0.22 0.51z"/>
   <path d="m570.79 557.54c-2.78 0.73-11.42 2.87-21.31 5.27 8.38-2.1 15.54-3.88 18.77-4.66z"/>
   <path d="m404 491.22c0-0.03 0-0.06 0.01-0.09 0.49 0.47 24.87 0.84 58.16 0.87-32.42-0.03-58.17-0.37-58.17-0.78z"/>
   <path d="m449.59 557.58c-0.39-0.99-4.95-6.46-10.98-13.19 6.52 7.24 11.38 12.95 11.17 13.16-0.03 0.04-0.1 0.05-0.19 0.03z"/>
   <path d="m529.99 490.7c-0.24-0.93-3.35-6.97-7.59-14.8 0.77 1.39 1.45 2.61 2 3.6 3 5.38 5.47 10.34 5.59 11.2z"/>
   <path d="m500.73 436.49c0.96 1.73 1.91 3.45 2.83 5.11-1.23-2.08-2.38-3.6-2.78-3.6-0.49 0-0.58-0.56-0.19-1.25 0.05-0.09 0.1-0.18 0.14-0.26z"/>
   <path d="m443.1 587.65-0.1-0.1c-2.04-1.92-5.15-4.03-7.56-5.19 0.14 0.04 0.3 0.08 0.46 0.12 1.53 0.33 4.54 2.43 6.69 4.65 0.17 0.17 0.34 0.35 0.51 0.52z"/>
   <path d="m476.34 393.17c-4.8-8.44-8.61-14.76-9.01-14.89-0.47-0.16-2.69 3.29-4.96 7.72 2.26-4.42 4.41-8 4.8-8s3.28 4.61 6.42 10.25c0.72 1.3 1.66 2.98 2.75 4.92z"/>
   <path d="m434 577.61c0 0.81 1.91 0.35 2.49-0.6 0.35-0.57-0.05-0.73-0.94-0.39-0.85 0.33-1.55 0.77-1.55 0.99z"/>
   <path d="m567.51 506.47 0.49-14.83c0.09-2.78 0.17-5.4 0.23-7.94-0.1 12.88-0.26 22.66-0.45 22.83-0.02 0.02-0.11 0-0.27-0.06z"/>
   <path d="m539.3 500.42c-0.19 0.09-0.41 0.26-0.69 0.49-0.77 0.64-1.8 1.03-2.3 0.88-0.52-0.17-5.43 4.55-9.21 8.54 4-4.41 9.98-10.31 10.8-10.32 0.23 0 0.71 0.14 1.4 0.41z"/>
   <path d="m620.16 450.15c-0.73 0.11-1.16 0.36-1.16 0.74 0 1.52-2.71 1.41-3.34-0.14-0.09-0.22-0.19-0.39-0.3-0.5 1.14-0.17 2.91-0.22 4.8-0.1z"/>
   <path d="m404.07 490.86c0.38-1.16 2.18-3.83 3.5-5.28-0.22 0.5-0.34 1.29-0.27 2.17 0.15 2.07-0.23 2.72-1.55 2.61-0.79-0.06-1.46 0.15-1.68 0.5z"/>
   <path d="m507.34 573.49c0.11 0.12 0.28 0.25 0.51 0.39 1.76 1.12-3.21 2.46-5.94 1.59-0.16-0.05-0.32-0.09-0.47-0.12 1.28-0.51 3.43-1.19 5.9-1.86z"/>
   <path d="m552.19 506.6c-3.25-1.6-6.51-2.98-7.69-3.12-1.1-0.12-2.56-0.28-3.25-0.35s-1.25-0.86-1.25-1.75c0-0.3-0.02-0.54-0.06-0.71 2.82 1.16 7.88 3.63 12.25 5.93z"/>
   <path d="m575 437.85v35.17c0 22.54 0.03 41.26 0.06 41.61 0.04 0.34-0.85 1.13-1.97 1.75-0.82 0.45-1.65 0.91-2.47 1.36 0.78-0.43 1.57-0.87 2.38-1.32 1.88-1.04 1.94-2.74 1.98-58.71z"/>
   <path d="m533 430c-2 1.29-7.3 1.29-6.5 0 0.34-0.55 2.28-0.99 4.31-0.98 2.75 0.01 3.31 0.26 2.19 0.98z"/>
   <path d="m317.29 556.1c-3.99-0.67-6.65-1.1-6.95-1.1-0.09 0-0.15-10.33-0.17-27.38 0.13 16.98 0.4 27.38 0.74 27.38 0.49 0 0.64-1.01 0.32-2.25-0.56-2.14-0.51-2.16 1.15-0.51 0.96 0.96 1.52 2.11 1.25 2.55-0.18 0.29 1.3 0.79 3.66 1.31z"/>
   <path d="m445.98 555.49c-1.85-1.37-3.8-2.49-4.33-2.49-0.29 0-2.02-0.81-4.49-2.09 3.78 1.84 4.31 1.44 4-0.41-0.27-1.63 0.32-1.37 3.22 1.41 1.95 1.87 3.27 3.86 2.93 4.4-0.02 0.03-0.03 0.05-0.04 0.07-0.41-0.27-0.84-0.57-1.29-0.89z"/>
   <path d="m458.88 376.51c-0.53894-0.0205-2.8678 0.62632-5.6328 1.5801-3.16 1.08-14.75 4.6993-25.75 8.0293-11 3.34-24.73 7.5416-30.5 9.3516s-12.08 3.5985-14 3.9785c-5.35 1.05-13 3.6309-13 4.3809-0.01 0.37 1.8609 5.9599 4.1309 12.42 0 0 10.479 28.971 11.029 29.801 0.03 0.04 0.0696 0.0699 0.0996 0.0898 0.55 0.35 0.69054 1.14 0.31054 1.75-0.37999 0.60985-0.1803 1.1092 0.4297 1.1092s0.88961 0.38008 0.59961 0.83008c-0.45 0.73 5.1606 17.96 10.061 30.92 0.12 0.29 0.22984 0.57961 0.33984 0.84961 0.06 0.14 0.10992 0.27039 0.16992 0.40039 0.73 1.72 1.4405 2.98 1.7305 3 0.08-0.01 0.34977-0.36 0.75977-1 1.21-1.88 3.7198-6.2197 6.7598-11.68 0.72-1.3 1.4702-2.6703 2.2402-4.0703 6.01-11.03 12.12-22.21 17.85-32.68 7.3941-13.495 13.094-23.823 18.246-33.139 2.6518-4.7794 5.3596-9.7278 7.3144-13.172 3.81-6.74 6.9297-12.449 6.9297-12.699 0-9.8e-4 8e-5 -3e-3 0-4e-3 -1.6e-4 -9.2e-4 -2e-3 -5e-3 -2e-3 -6e-3v-2e-3l-2e-3 -2e-3c-4.7e-4 -8.1e-4 -1e-3 -5e-3 -2e-3 -6e-3 -0.015-0.018-0.0536-0.0291-0.11133-0.0312z"/>
   <path d="m400.32 522.75c0.94-0.84 0.92-3.49-0.34-4.26-0.56-0.35-0.69-1.16-0.3-1.81 0.4-0.67-0.02-0.59-0.99 0.19-0.05 0.04-0.1 0.09-0.15 0.13 1-1.15 2.38-2 3.79-2 2.11 0 2.25 3.84 0.17 4.64-0.83 0.31-1.5 1.2-1.5 1.97 0 0.51-0.28 0.9-0.68 1.14z"/>
   <path d="m398.8 500.85c0.18 0.26 0.57 0.74 1.15 1.4 2.52 2.89 1.81 3.64-1.25 1.32-0.99-0.75-3.26-1.23-5.05-1.06-1.47 0.14-6.78 2.31-11.89 4.65 7.25-3.49 15.59-7.21 16.22-7 0.1 0.04 0.38 0.28 0.82 0.69z"/>
   <path d="m427.29 579.24c-0.43 0.24-0.19 0.28 0.54 0.1 0.73-0.19 2.27-0.34 3.42-0.34s1.79-0.3 1.43-0.66c-0.37-0.36-0.21-1.2 0.34-1.86 0.75-0.91 0.34-1.08-1.66-0.7-1.92 0.37-2.45 0.17-1.9-0.71 0.55-0.9 0.22-0.89-1.3 0.06-1.44 0.9-1.76 1.65-1.07 2.48 0.55 0.66 0.64 1.39 0.2 1.63z"/>
   <path d="m488.17 556.23c1.25-0.89 1.07-1.25-0.92-0.56-1.21 0.42-0.92-0.26 0.95-2.21 2.91-3.04 7.01-4.17 6.05-1.68-0.24 0.63 0.23 0.67 1.34 0.13l-0.09 0.06c-3.17 1.86-5.55 3.24-7.33 4.26z"/>
   <path d="m481.45 593.84c-3.19 1.45-4.45 1.47-4.45 0.05 0-0.63 0.73-0.82 1.69-0.45 1.46 0.56 1.44 0.36-0.19-1.44-1.82-2.01-1.82-2.06-0.03-1.37 1.2 0.46 1.63 0.33 1.2-0.36-0.36-0.58 0.08-1.34 0.98-1.69 2.18-0.83 3.19 0.28 1.32 1.46-1.23 0.78-1.19 0.93 0.28 0.94 2.56 0.03 2.14 1.52-0.8 2.86z"/>
   <path d="m523.73 569.3c-3.26 0.91-5.14 1.52-4.96 1.65 2.16 1.62 1.09 3.19-2.01 2.92-1.81-0.15-3.75 0.01-4.32 0.36s-1.69 0.22-2.49-0.28c-0.47-0.3-1.06-0.57-1.57-0.74l0.12-0.03c3.34-0.87 8.85-2.27 15.23-3.88z"/>
   <path d="m565 428.56c0 0.76 0.78 1.05 2 0.73 0.56-0.15 0.98-0.36 1.28-0.72 0.07 5.97 0.09 14.88 0.08 24.57-0.03-2.37-0.07-4.86-0.13-7.51l-0.23-11.86-2.5 0.47c-1.82 0.35-2.51 0.04-2.55-1.13-0.03-0.88-3.39 7.57-7.47 18.78-4.06 11.15-7.15 20.67-6.9 21.24-0.79-1.28 11.46-34.75 16.97-47.37-0.33 1.06-0.55 2.08-0.55 2.8z"/>
   <path d="m489.51 416.5c3.08 5.43 7.15 12.68 11.06 19.7-0.16 0.13-0.37 0.32-0.64 0.57-1.12 1.04-1.69 0.68-3.18-2-1.33-2.39-1.64-2.62-1.17-0.87 0.62 2.29 0.75 5.01 0.46 7.46 0.31-3.09-0.13-6.65-1.34-9.54-2.21-5.28-7.44-8.04-16.32-8.61l-3.28-0.21h1.37c5.78 0 13.97 2.27 16.61 4.61 2.84 2.5 2.91 0.23 0.15-4.49-1.4-2.39-7.02-12.33-12.79-22.66 2.93 5.2 6.2 10.99 9.07 16.04z"/>
   <path d="m520.5 428.29c0-0.12 0.01-0.24 0.03-0.35 0.46 0.6 1.39 1.06 2.59 1.06 1.1 0 1.74 0.42 1.42 0.93-0.54 0.88-2.51 1.19-7.84 1.02 0.17-0.14 0.3-0.51 0.3-0.95 0-0.55-0.48-1-1.06-1s-0.78 0.45-0.44 1c0.26 0.43 0.61 0.8 0.87 0.94-1.69-0.06-3.71-0.16-6.11-0.31l-5.05-0.3c-0.74-1.39-1.52-2.84-2.3-4.33-3.74-7.11-9.15-17.05-13.69-25.17 3.78 6.68 7.57 13.51 9.61 17.29l5.17 9.63 5.25 0.51c2.89 0.29 5.44 0.34 5.68 0.12s-0.31-1.96-1.22-3.85c-0.87-1.84-1.11-3.12-0.77-3.8-0.31 0.87 0.25 2.69 1.72 5.38 2.81 5.18 5.84 6.31 5.84 2.18z"/>
   <path d="m370.06 404.12c0.34 1.28 2.04 6.36 4.07 12.13 0 0-3.5-9.58-4.07-12.13z"/>
   <path d="m476.78 377.12c-0.14925-3e-3 -0.24359 0.0119-0.27734 0.0469-0.28 0.27 3.4703 7.4399 8.3203 15.92 4.86 8.47 11.19 19.8 14.08 25.16 5.14 9.57 5.2999 9.7503 8.9199 9.8203 2.02 0.04-2.6094 2.2598-2.6094 2.2598 4.08 7.59 7.4194 13.35 7.8594 13.51 0.11 0.04 0.20906 0.0899 0.28907 0.16993 0.38999 0.05 0.46062 0.48023 0.14062 0.99023-0.34 0.55-0.22047 1 0.26953 1 0.5 0 0.92117 0.56 0.95117 1.25 0.07 1.58 17.3 33.12 19.49 35.68 0.89 1.04 1.5094 2.1094 1.3594 2.3594-0.0344 0.0687-0.0448 0.11524-0.0351 0.13672v2e-3c6e-4 7.9e-4 3e-3 5e-3 4e-3 6e-3 7.7e-4 5.9e-4 5e-3 1e-3 6e-3 2e-3 9.3e-4 3.9e-4 5e-3 4e-3 6e-3 4e-3 2e-3 3.9e-4 7e-3 0 0.01 0 0.07 0 0.23875-0.11031 0.46875-0.32031 0.32-0.27 1.0811-2.03 1.8711-4.25 0.04-0.12 0.0791-0.23914 0.11914-0.36914 0.09-0.29 0.29008-0.86922 0.58008-1.6992 12.122-34.25 0.37641-0.5464 18.82-51.301h0.0293l4.2617-11.48c3.33-9 3.9895-11.729 3.0195-12.619-0.68-0.63-4.8305-2.0502-9.2305-3.1602-7-1.78-43.86-12.79-69.75-20.85-4.2088-1.3125-7.9278-2.2432-8.9727-2.2676z"/>
   <path d="m604 302.79-8.25 0.69141c-42.76 3.59-71.87 11.669-107 29.699-5.36 2.75-9.75 5.3099-9.75 5.6699 0 0.37 3.71 2.8708 8.25 5.5508s12.08 7.2291 16.75 10.119c4.67 2.88 21.33 13 37 22.49 15.67 9.48 29.74 18.551 31.25 20.131 2.73 2.87 2.75 2.999 2.75 16.709 0 1.0798 7e-3 2.1373 0.0195 3.1602 1.5e-4 0.012-1.5e-4 0.0251 0 0.0371l-0.0195 14.992v40.98c0 22.54 0.0305 41.261 0.0606 41.611 0.04 0.34-0.85071 1.13-1.9707 1.75-0.82 0.45-1.6507 0.90937-2.4707 1.3594-5.93 3.3-11.019 6.1507-15.119 8.4707-7.15 4.03-11.26 6.4288-11.5 6.7188-0.28 0.32-2.86 1.68-5.75 3-2.89 1.33-5.25 2.7802-5.25 3.2402s-0.67 0.83008-1.5 0.83008-2.4 0.9-3.5 2-2.4896 2-3.0996 2c-1.11 0-14.381 7.1099-40.871 21.92-7.96 4.44-15.35 8.0801-16.43 8.0801-2.73 0-8.5996-2.2198-8.5996-3.2598 0-0.47-0.40992-0.60101-0.91992-0.29101s-1.5809-0.0887-2.3809-0.88867c-0.8-0.81-1.7401-1.1896-2.0801-0.84961s-0.61914 0.0684-0.61914-0.60156c0-0.68-0.41945-0.96844-0.93945-0.64844-0.51 0.32-1.4007-0.21141-1.9707-1.1914-0.57-0.97-1.0503-1.3195-1.0703-0.76953-0.03 0.55-0.37906 0.47961-0.78906-0.15039-1.09-1.71-24.44-14.34-25.4-13.74-0.46 0.27999-0.83008 0.10132-0.83008-0.38868 0-1.02-10.09-6.8012-11.25-6.4512-0.41 0.13-0.75-0.17039-0.75-0.65039s-1.46-1.4694-3.25-2.1894-3.48-1.609-3.75-1.959l-0.01-0.01c-0.83-0.88-27.25-15.611-33.99-18.951-0.38-0.19-0.77016-0.38938-1.1602-0.60938-1.92-0.91-3.3707-1.4313-4.4707-2.3613-0.44-0.37-0.8182-0.80937-1.1582-1.3594l-2.2108-2.0291-0.0801-42.57c-0.04-23.42-0.30031-42.041-0.57031-41.381-0.34 0.85-1.2105 0.92-2.9805 0.25-3.02-1.15-22.359-1.2391-24.129-0.11914-0.49 0.31-0.78945 3.1204-0.93945 10.65l0.19922 90.85 2.5 0.75c1.38 0.41 7.5297 1.9098 13.68 3.3398 34.37 7.95 74.83 24.289 108.82 43.939 4.4 2.54 9.1506 4.6308 10.561 4.6308 1.41 0.01 5.01-1.4595 8-3.2695 26.85-16.16 69.189-33.951 101.86-42.811 9.65-2.61 17.08-8.4106 17.08-13.311 0-1.89 1.0601-4.6202 2.5801-6.6602 6.84-9.13 7.4199-11.429 7.4199-29.389v-16.512l-3.9707-2.0195c-4.73-2.42-6.0293-4.5489-6.0293-9.8789 0-4.42 3.0208-8.8601 8.0508-11.83 1.59-0.94 3.1089-2.2802 3.3789-2.9902 0.27-0.7-1.1788-4.3308-3.2188-8.0508-2.3-4.19-3.1817-5.9697-3.5117-9.1797-0.17998-1.74-0.1992-3.8998-0.1992-7.0898 0-2.8575 0.0421-4.9062 0.18555-6.5898 0.52037-2.8322 1.6373-6.3326 2.7852-8.5293l2.5293-4.8418v-49.629z"/>
   <path d="m631.4 399.18c-1.3256-0.0507-2.699-0.0207-4.1152 0.0918-12.3 0.98-20.379 8.7506-21.109 20.311-0.21558 3.29-0.14843 6.6361 0.14062 7.7598 8.3e-4 6e-3 1e-3 0.0134 2e-3 0.0195 0.21019 1.5521 0.54943 2.8842 1.0176 4.0098 0.45 1.1 1.0207 1.9914 1.7207 2.6914 1.07 1.07 1.6491 1.9394 1.2891 1.9394-0.37 0 0.2 0.94937 1.25 2.1094 2.84 3.14 8.8606 5.8906 12.891 5.8906 4.23 0 5.6307 2.2708 2.9707 4.8008-0.15 0.14-0.31071 0.26867-0.47071 0.38867-1.02 0.76-2.3397 1.111-3.9297 1.041-0.81 0.02-1.7496-0.0101-2.8496-0.0801h-0.0508c-0.73 0.11-1.1602 0.36024-1.1602 0.74023 0 1.52-2.7098 1.4094-3.3398-0.14062-0.09-0.22-0.19078-0.39-0.30078-0.5-0.46001 0.06-0.8093 0.14977-1.0293 0.25977-0.16 0.19-0.48016 0.44976-0.91016 0.75976v0.01c-0.78 0.58-2.0799 1.3703-3.4199 2.0703-6.82 3.58-9.3309 6.2-8.6309 9 0.62 2.44 1.0206 2.5813 8.3906 2.8613l7.7402 0.28889-0.30078 10.5c-0.19 6.32-1.1685 14.08-2.4785 19.5-1.19 4.95-2.1814 9.45-2.1914 10-0.02 0.55-0.61985 1.6209-1.3398 2.3809s-1.0693 1.99-0.77929 2.75c0.29 0.75 0.1189 1.3691-0.3711 1.3691-0.8 0-1.3393 1.0592-2.2793 4.4492-0.14 0.52-1.1297 1.9116-2.1797 3.1016-1.06 1.19-1.9998 3.1286-2.0898 4.3086-0.15 2.09 0.16883 2.1406 13.049 2.1406 10.53 0 13.471 0.31 14.461 1.5 0.99 1.2 0.99 1.8 0 3s-3.9406 1.5-14.561 1.5c-7.32 0-14.45 0.43094-15.84 0.96094s-4.7906 3.1484-7.5606 5.8184c-4.44 4.28-5.0391 5.3412-5.0391 8.9512 0 2.31 0.55 4.3597 1.25 4.6797 0.69 0.32 6.6102 0.36007 13.16 0.0801 6.55-0.27 24.479-0.49023 39.859-0.49023h27.961l-0.71094-4.7402c-0.53-3.51-1.6892-5.8088-4.4492-8.7988-4.93-5.35-17.481-30.871-20.131-40.961-1.51-5.71-2.1595-11.44-2.2695-20l-0.16992-12 6.4609-0.30078c5.92-0.28 9.0391-1.3589 9.0391-3.1289 0-1.3-7.7807-8.5208-9.2207-8.5508-0.39-0.01-1.5902-0.76945-2.6602-1.6894s-2.2091-1.4001-2.5391-1.0801c-0.32 0.32-0.58008 0.0599-0.58008-0.58008 0-0.67-1.5-1.1699-3.5-1.1699-4.76 0-4.7292-2.8809 0.0508-5.4609 0.25-0.13 0.49-0.26968 0.75-0.42968 2.17-1.35 4.7388-3.6687 6.7188-5.8887 0.53-0.6 1.0398-1.2103 1.5098-1.8203 1.34-1.72 2.4303-3.4605 3.0703-4.9805 0.37835-0.916 0.6787-2.0207 0.89844-3.2246 1.0309-3.0612 0.45456-11.702-1.3574-15.705-3.4825-7.6475-10.457-11.958-19.736-12.312z"/>
   <path d="m325.14 325.91-7.3203 0.28906-7.3203 0.30078 0.01 10.5c0 5.77 0.12 28.84 0.25 51.25l0.24 40.75h5.8008l0.0996-47.25c0.05-25.99 0.0996-47.789 0.0996-48.439s1.69-1.33 3.75-1.5c3.27-0.27 3.7903-0.67133 4.0703-3.1113zm-11.742 107.49c-0.80063-7e-3 -1.4338 0.3775-1.4688 0.9375-0.04 0.64-0.45969 0.26016-0.92969-0.83984-0.35-0.81-0.65055 11.729-0.81055 31.689-0.04 24.72-0.0495 46.5-0.0195 62.43 0.13 16.98 0.40024 27.381 0.74024 27.381 0.49 0 0.64031-1.01 0.32031-2.25-0.56-2.14-0.50961-2.1598 1.1504-0.50977 0.96 0.96 1.52 2.1088 1.25 2.5488-0.18 0.29 1.2982 0.79055 3.6582 1.3106 2.26 0.38 4.9509 0.83984 7.8809 1.3398 6.21 0.99 13.379 2.2499 20.949 3.6699 7.15 1.28 13.251 2.3902 15.791 2.9102 7.99 1.62 17.169 3.63 26.289 5.75 8.09 1.82 15.351 3.5703 20.961 5.0703 2.6 0.66 5.1007 1.2999 7.4707 1.9199 7.68 2.01 13.909 3.7802 17.369 4.9902 0.15947 0.0598 0.32847 0.11975 0.50781 0.18945h2e-3c0.29 0.12 0.59968 0.25992 0.92968 0.41993 0.14 0.04 0.30094 0.0811 0.46094 0.12109 1.53 0.33 4.5394 2.4304 6.6894 4.6504 0.17 0.17 0.33977 0.34953 0.50977 0.51953 1.63 1.52 3.1405 2.7689 4.7305 3.8789 2.78 1.88 6.0291 3.5098 10.119 5.0898 0.11 0.04 0.21984 0.0811 0.33984 0.12109h0.0117c2.37 0.81 5.9788 1.0901 10.549 0.83008 9.16-0.54 16.52-3.9105 21.93-10.061 3.69-4.19 4.421-4.5305 17.291-7.9805 18.22-4.9 47.41-11.879 58.68-14.049l9.25-1.7695v-7.4316l-5.2109 1.2598c-2.78 0.73-11.419 2.8715-21.309 5.2715-8.26 2.07-17.7 4.4502-25.75 6.4902-3.0817 0.86024-4.9298 1.451-4.9707 1.623l-2e-3 2e-3v8e-3l2e-3 2e-3v4e-3l0.01 0.01c2.16 1.62 1.0902 3.1899-2.0098 2.9199-1.81-0.15-3.7503 0.0113-4.3203 0.36133-0.57 0.35-1.6902 0.21875-2.4902-0.28125-0.47-0.3-1.0584-0.56828-1.5684-0.73828-0.35 0.09-0.70102 0.18929-1.041 0.27929 0.11 0.12 0.27977 0.25063 0.50977 0.39063 1.76 1.12-3.2094 2.4598-5.9394 1.5898-0.16-0.05-0.32071-0.0911-0.47071-0.12109-0.74 0.29-1.1802 0.52992-1.2402 0.66992-0.13 0.33-0.75883 0.47063-1.5488 0.39063-0.2-0.03-0.42039-0.0611-0.65039-0.1211-0.02 0-0.0308-0.01-0.0508-0.01-1.07-0.27-1.9492-0.0502-1.9492 0.50976 0 0.56-0.87922 0.79172-1.9492 0.51172-1.41-0.37-3.2206 0.87-6.5606 4.5-6.47 7.03-12.731 9.5785-22.051 8.9785h-0.0391c-4.2716-0.2737-8.591-1.2148-11.1-2.3965 1.3391 0.62721 3.2208 1.157 5.3047 1.5859-5.9786-1.3052-10.539-3.9822-13.156-7.8281-2.23-3.29-3.509-3.9608-13.209-6.8808-9.6737-2.9296-19.542-5.6856-29.545-8.2578-0.17142-0.0445-0.34267-0.088-0.51562-0.13281-14.08-3.61-28.431-6.8695-44.621-10.074-7.8001-1.5147-13.919-2.6258-20.059-3.6758l-9.1408-1.5492-12.859-2.1406v-0.0391l-0.5-57.83c-0.47-54.13-0.61-57.891-2.25-58.131-0.12-0.0175-0.23719-0.0263-0.35156-0.0274z"/>
   <path d="m310.76 388.25 0.24 40.75h5.5v13.44 106.95l12.86 2.18-12.86-2.14v-0.04l-0.5-57.83c-0.47-54.13-0.61-57.89-2.25-58.13-0.96-0.14-1.78 0.27-1.82 0.91s-0.46 0.26-0.93-0.84c-0.35-0.81-0.65 11.73-0.81 31.69 0.01-7.88 0.03-16.06 0.05-24.44l0.26-114.25 0.01 10.5c0 5.77 0.12 28.84 0.25 51.25z"/>
   <path d="m331.65 416.65 0.64 11.16 26.71 0.27v-9.49c0-7.34 0.42-12.33 1.49-15.93l-0.26 54.56c-0.03 5.05-0.06 9.67-0.08 13.89-0.19 32.24-0.24 41.72 2.06 45.57l-2.21-2.03-0.08-42.57c-0.04-23.42-0.3-42.04-0.57-41.38-0.34 0.85-1.21 0.92-2.98 0.25-3.02-1.15-22.36-1.24-24.13-0.12-0.49 0.31-0.79 3.12-0.94 10.65l-0.05-23.92-0.06-24.33c0.12 11.56 0.28 20.32 0.46 23.42z"/>
   <g>
    <path d="m538.16 413.41c-0.05-0.17-0.12-0.34-0.22-0.51 0.12 0.21 0.21 0.41 0.27 0.61z"/>
    <path d="m467.32 378.27 0.01 0.01c0.4 0.13 4.21 6.45 9 14.88-4.77-8.39-8.57-14.7-9.01-14.89z"/>
    <path d="m523.04 429c-1.16-0.02-2.06-0.47-2.51-1.06 0-0.02 0.01-0.05 0.01-0.07 0.06 0.07 0.12 0.14 0.19 0.21 0.4 0.42 1.22 0.72 2.31 0.92z"/>
    <path d="m511.37 428.44c-0.66-0.05-1.38-0.1-2.12-0.18l-2.16-0.21c0.23 0.01 0.47 0.02 0.73 0.02 1.13 0.02 2.43 0.16 3.55 0.37z"/>
    <path d="m465 423-7.11 0.05c-1.82 0.02-3.68 0.14-5.43 0.36 1.92-0.27 3.87-0.41 5.7-0.41z"/>
    <path d="m513.31 423.61c-0.11-0.22-0.21-0.43-0.31-0.62-0.67-1.24-0.56-2.12 0.07-2.51-0.06 0.07-0.1 0.15-0.13 0.25-0.28 0.56-0.17 1.53 0.37 2.88z"/>
    <path d="m463.99 382.98c-0.13 0.25-0.25 0.5-0.38 0.76-1.01 2.07-3.51 6.7-6.39 11.89 2.14-3.92 3.95-7.29 5.02-9.38 0.68-1.33 1.23-2.35 1.75-3.27z"/>
    <path d="m506.01 427.94-2.01-0.19-5.1-9.5c4.12 7.67 5.04 9.31 7.11 9.69z"/>
    <path d="m434 577.61c0-0.22 0.7-0.66 1.55-0.99 0.89-0.34 1.29-0.18 0.94 0.39-0.58 0.95-2.49 1.41-2.49 0.6z"/>
    <path d="m528 521.5c0-2.71 0.09-2.79 2.37-1.91 1.25 0.48 1.31 0.95 0.34 2.5-1.64 2.63-2.71 2.39-2.71-0.59z"/>
    <path d="m397.67 522.33c-0.53-0.52-0.72-1.24-0.67-2.01 0.09-1.1 0.67-2.32 1.54-3.32 0.05-0.04 0.1-0.09 0.15-0.13 0.97-0.78 1.39-0.86 0.99-0.19-0.39 0.65-0.26 1.46 0.3 1.81 1.26 0.77 1.28 3.42 0.34 4.26-0.24 0.14-0.53 0.22-0.84 0.24-0.69-0.04-1.48-0.32-1.81-0.66z"/>
    <path d="m427.29 579.24c0.44-0.24 0.35-0.97-0.2-1.63-0.69-0.83-0.37-1.58 1.07-2.48 1.52-0.95 1.85-0.96 1.3-0.06-0.55 0.88-0.02 1.08 1.9 0.71 2-0.38 2.41-0.21 1.66 0.7-0.55 0.66-0.71 1.5-0.34 1.86 0.36 0.36-0.28 0.66-1.43 0.66s-2.69 0.15-3.42 0.34c-0.73 0.18-0.97 0.14-0.54-0.1z"/>
    <path d="m481.45 593.84c2.94-1.34 3.36-2.83 0.8-2.86-1.47-0.01-1.51-0.16-0.28-0.94 1.87-1.18 0.86-2.29-1.32-1.46-0.9 0.35-1.34 1.11-0.98 1.69 0.43 0.69 0 0.82-1.2 0.36-1.79-0.69-1.79-0.64 0.03 1.37 1.63 1.8 1.65 2 0.19 1.44-0.96-0.37-1.69-0.18-1.69 0.45 0 1.42 1.26 1.4 4.45-0.05z"/>
    <path d="m464.62 522.48c-3.55-3.55-0.25-8.36 4.86-7.07 2.93 0.73 3.66 2.67 2.16 5.7-1.45 2.91-4.82 3.57-7.02 1.37z"/>
    <path d="m464.2 534.8c-3.39-3.39 0.42-8.61 5.38-7.37 2.83 0.71 4.24 4.87 2.41 7.08-1.48 1.79-6.12 1.96-7.79 0.29z"/>
    <path d="m404.24 522.16c1.14-1.14 1.27-8.06 0.17-9.09-0.5-0.47-2.26-1.14-3.91-1.49-2.74-0.57-3.01-0.39-3.16 2.13-0.09 1.56-1.07 3.36-2.25 4.15-2.78 1.85-2.7 4.87 0.16 5.47 2.78 0.58 7.91-0.09 8.99-1.17z"/>
    <path d="m563 487.93c0-0.58-0.44-1.89-0.98-2.89-0.78-1.46-0.47-2.17 1.5-3.46 3.3-2.16 3.13-3.58-0.42-3.58-2.36 0-3.13-0.61-4.1-3.25l-1.2-3.25-0.98 2.75c-1.03 2.86-1.51 3.08-6.07 2.78-3.43-0.23-3.46 0.46-0.12 3.33 2.32 1.99 2.49 2.54 1.42 4.54-1.61 3.01-0.78 3.63 2.22 1.66 2.63-1.72 5.24-1.29 6.12 1.02 0.64 1.65 2.61 1.92 2.61 0.35z"/>
    <path d="m533 522.44c0-1.69 0.45-1.74 4.76-0.51 3.17 0.91 3.24 0.86 3.23-2.25 0-1.75-0.48-4.9-1.06-7-1.2-4.33-2.77-3.88-4.97 1.42-1.17 2.83-1.51 2.98-5.11 2.38l-3.85-0.66v4.66c0 2.56 0.51 5.61 1.14 6.78 1.13 2.11 1.14 2.11 3.5-0.62 1.3-1.52 2.36-3.4 2.36-4.2z"/>
    <path d="m475.08 537.08c3.31-3.31 3.64-5.6 1.3-8.95-1.29-1.84-1.39-2.8-0.5-4.77 1.78-3.91 1.33-6.31-1.8-9.44-3.27-3.26-6.65-3.71-11.01-1.46-4.16 2.16-5.45 7.36-2.85 11.53 0.97 1.55 0.97 2.22 0 3.19-0.67 0.67-1.22 2.9-1.22 4.95 0 7.68 10.2 10.82 16.08 4.95z"/>
    <path d="m586.56 565.78c-1.94-2.77-1.94-3.26 0.01-5.21 1.38-1.38 6.71-1.57 43.39-1.57 37.22 0 41.89 0.17 42.43 1.58 1.13 2.93 0.62 5.34-1.32 6.38-1.25 0.67-16.44 1.04-42.45 1.04h-40.51z"/>
    <path d="m567.51 506.47c-1.02-0.36-4.82-2.14-9.61-4.51l-3.07-1.54c-6.32-3.17-11.84-6.22-13.1-7.21-0.13-0.1-0.21-0.18-0.25-0.24-0.84-1.37 3.4-12.97 4.75-12.97 0.54 0 0.72-0.67 0.41-1.5-0.32-0.83-0.09-1.5 0.5-1.5s0.81-0.67 0.5-1.5c-0.32-0.83-0.11-1.5 0.45-1.5s0.78-0.39 0.5-0.86l-0.01-0.01c-0.25-0.57 2.84-10.09 6.9-21.24 4.08-11.21 7.44-19.66 7.47-18.78 0.04 1.17 0.73 1.48 2.55 1.13l2.5-0.47 0.23 11.86c0.06 2.65 0.1 5.14 0.13 7.51-0.01 10.17-0.05 21.19-0.13 30.56-0.06 2.54-0.14 5.16-0.23 7.94z"/>
    <path d="m483.03 558.29c0.02-0.44 6.16-7.09 13.65-14.79s13.56-14.28 13.51-14.63c-0.06-0.35 2.9-3.5 6.58-7 3.67-3.5 6.69-6.62 6.71-6.92 0.02-0.46 1.55-2.34 3.62-4.62 3.78-3.99 8.69-8.71 9.21-8.54 0.5 0.15 1.53-0.24 2.3-0.88 0.28-0.23 0.5-0.4 0.69-0.49 0.2 0.07 0.41 0.16 0.64 0.25 0.04 0.17 0.06 0.41 0.06 0.71 0 0.89 0.56 1.68 1.25 1.75s2.15 0.23 3.25 0.35c1.18 0.14 4.44 1.52 7.69 3.12 4.14 2.18 7.65 4.2 8.04 4.79 0.43 0.64 0.75 0.69 0.77 0.11 0.02-0.55 0.45-0.34 0.96 0.47 1.3 2.06-0.16 3.5-7.86 7.72-3.63 1.99-9.07 5.07-12.1 6.84-1.25 0.74-3.66 2.08-6.71 3.75-0.18 0.1-0.37 0.2-0.56 0.31-3.36 1.83-7.44 4.04-11.6 6.26-1.05 0.56-2.09 1.11-3.13 1.66-0.6 0.32-1.2 0.64-1.81 0.97-8.86 4.71-17.54 9.46-20.2 11.05-0.93 0.53-1.73 0.99-2.4 1.38-1.11 0.54-1.58 0.5-1.34-0.13 0.96-2.49-3.14-1.36-6.05 1.68-1.87 1.95-2.16 2.63-0.95 2.21 1.99-0.69 2.17-0.33 0.92 0.56-1.57 0.88-2.67 1.48-3.44 1.86-1 0.39-1.69 0.49-1.7 0.2z"/>
    <path d="m398.8 500.85c1.89 1.8 6.67 6.89 11.93 12.74 6.48 7.2 18 19.94 25.62 28.31 0.77 0.85 1.53 1.68 2.26 2.49v0.01c6.04 6.72 10.59 12.19 10.98 13.18-0.14-0.02-0.33-0.08-0.57-0.19-0.01-0.09-0.02-0.18-0.02-0.28 0-0.68-0.52-0.91-1.15-0.51-0.05 0.02-0.09 0.05-0.13 0.07-0.15-0.09-0.3-0.19-0.45-0.29 0.01-0.02 0.02-0.04 0.04-0.07 0.34-0.54-0.98-2.53-2.93-4.4-2.9-2.78-3.49-3.04-3.22-1.41 0.31 1.85-0.22 2.25-4 0.41-1.99-1.03-4.47-2.36-7.07-3.8-2.26-1.26-4.77-2.64-7.18-3.98-3.69-2.04-7.3-4.01-9.41-5.15-2.43-1.3-4.73-2.54-6.9-3.71-10.3-5.55-17.7-9.59-22.98-12.57-7.67-4.33-10.97-6.49-12.11-7.77-0.33-0.39-0.47-0.7-0.49-0.98 0.01-0.07 0.09-0.17 0.23-0.29 1.06-0.81 5.52-3.1 10.51-5.5h0.01c5.1-2.34 10.41-4.51 11.88-4.65 1.79-0.17 4.06 0.31 5.05 1.06 3.06 2.32 3.77 1.57 1.25-1.32-0.58-0.66-0.97-1.14-1.15-1.4z"/>
    <path d="m458.33 556.38c-4.31-4.75-7.72-9-7.59-9.46s-1.36-2.05-3.31-3.54c-2.97-2.27-26.58-27.87-38.26-41.49l-3.34-3.89h61.09c33.59 0 61.08 0.34 61.07 0.75s-11.98 13.8-26.62 29.75-27.98 30.69-29.66 32.75c-1.67 2.06-3.61 3.75-4.3 3.75s-4.78-3.88-9.08-8.62z"/>
    <path d="m486.08 482c0.5 0 2.68-0.77 4.84-1.71 5.35-2.31 8.08-7.3 8.08-14.75 0-5.29-0.28-5.98-3.98-9.75-2.18-2.23-3.67-4.56-3.31-5.17 0.36-0.62 1.52-2.29 2.56-3.73 0.96-1.32 1.56-3.31 1.77-5.53 0.29-2.45 0.16-5.17-0.46-7.46-0.47-1.75-0.16-1.52 1.17 0.87 1.49 2.68 2.06 3.04 3.18 2 0.27-0.25 0.48-0.44 0.64-0.57l0.16 0.29c-0.04 0.08-0.09 0.17-0.14 0.26-0.39 0.69-0.3 1.25 0.19 1.25 0.4 0 1.55 1.52 2.78 3.6 0.51 0.92 1.01 1.82 1.5 2.71 1.41 2.62 4.33 7.94 7.74 14.14h0.01c3.43 6.28 7.02 12.81 9.59 17.45l0.01 0.01c4.23 7.82 7.34 13.86 7.58 14.79 0 0.3-0.82 0.5-2.81 0.66h-0.03c-6.06 0.49-22.85 0.64-60.15 0.64h-4.83c-33.29-0.03-57.67-0.4-58.16-0.87 0.01-0.08 0.03-0.17 0.06-0.27 0.22-0.35 0.89-0.56 1.68-0.5 1.32 0.11 1.7-0.54 1.55-2.61-0.07-0.88 0.05-1.67 0.27-2.17 0.21-0.23 0.4-0.42 0.57-0.57 0.03-0.01 0.05-0.01 0.07-0.01 0.55 0 0.78-0.23 0.58-0.52 0.26-0.27 0.23-0.46-0.1-0.46-0.03-0.01-0.05-0.01-0.07-0.03 0.07-0.91 1.09-3.15 2.26-5.29 1.36-2.39 2.92-4.7 3.43-4.7 0.44 0 0.53-0.45 0.19-1s-0.11-1 0.5-1 0.84-0.45 0.5-1-0.11-1 0.5-1 0.85-0.43 0.52-0.96c-0.32-0.53 0.21-1.81 1.19-2.84 0.99-1.03 1.94-2.5 2.11-3.28 0.56-2.45 16.35-31.37 17.73-32.49 0.73-0.58 1.47-1.69 1.64-2.46 0.17-0.76 0.67-1.86 1.11-2.43 0.3-0.39 1.21-1.91 2.52-4.16-0.29 0.55-0.53 0.99-0.69 1.31l-2.11 4.2 5.65-1.95c0.08-0.03 0.17-0.06 0.26-0.09-4.22 1.62-4.45 1.92-4.74 6.05-0.3 4.1-0.18 4.33 2 3.83 1.27-0.28 3.79-0.85 5.6-1.26 1.82-0.41 3.23-0.34 3.14 0.15-0.09 0.48-0.11 11.79-0.05 25.13l0.12 24.25h12v-25.36c0-13.95 0.29-27.45 0.64-30l0.36-2.66v1.09c0 2.75 0.28 3.03 2.75 2.75 2.16-0.25 2.82-0.91 3.07-3.07 0.05-0.46 0.1-0.85 0.18-1.17v7.42h3.95c7.99 0 11.81 7.73 6.6 13.35-1.77 1.91-3.45 2.65-6 2.65-3.54 0-3.55 0.01-3.55 4.5v4.5h4.83c4.11 0 5.24 0.45 7.5 2.99 6.08 6.82 0.63 13.98-10.64 14-2.68 0.01-2.79 0.2-2.5 4.26l0.31 4.25 6.5 0.5c1.39 0.11 2.71 0.16 3.81 0.15 1.91 0.01 3.19-0.13 3.19-0.4 0-0.15 0.06-0.29 0.16-0.41 0.25-0.2 0.6-0.34 0.92-0.34z"/>
    <path d="m448.63 366.15c-2.08-2.31-2.1-6.03-0.03-6.83 1.96-0.75 3.36 1.27 3.38 4.87 0.02 3.47-1.29 4.24-3.35 1.96z"/>
    <path d="m453.17 368.35c2.43-2.2 2.32-6.46-0.24-9.72-3.86-4.9-7.93-2.84-7.93 4.01 0 3.25 0.52 4.61 2.22 5.8 2.81 1.97 3.69 1.96 5.95-0.09z"/>
    <path d="m438.04 359.25c0.04-0.79 24.01-15.25 25.28-15.25 0.41 0 0.62 5.29 0.46 11.75l-0.28 11.75-7 2.33c-3.85 1.28-14.65 4.56-24 7.29s-22.69 6.74-29.65 8.92c-13.1 4.1-14.91 4.53-13.3 3.14 0.52-0.45 8.83-5.68 18.45-11.62s19.43-12.09 21.78-13.68z"/>
    <path d="m490.82 369.78c0.97-0.97 1.64-0.97 3.19 0 2.69 1.67 2.99 1.56 2.99-1.08 0-1.27 0.53-2.83 1.17-3.47 0.89-0.89 0.77-1.32-0.5-1.8-0.92-0.36-1.67-1.5-1.67-2.54 0-2.3-1.3-2.44-3.05-0.33-0.83 1-2.15 1.36-3.63 0.99-2.69-0.68-2.91 0.16-0.84 3.12 1.31 1.87 1.31 2.26 0 3.35-0.81 0.67-1.48 1.62-1.48 2.1 0 1.29 2.41 1.07 3.82-0.34z"/>
    <path d="m535 386.98c-6.33-2.1-20.05-6.31-30.5-9.35s-22.15-6.6-26-7.92l-7-2.39-0.28-11.66c-0.22-9.18 0-11.66 1.05-11.66 0.73 0 1.76 0.42 2.28 0.92 1.19 1.16 22.52 14.08 23.23 14.08 0.29 0 1.92 1.05 3.63 2.33 1.7 1.29 6.16 4.1 9.91 6.25 11.38 6.54 35.68 21.31 37.13 22.59 1.75 1.53-1.81 0.69-13.45-3.19z"/>
    <path d="m618.53 362.14 0.73-30-3.88-0.32c-3.4-0.28-3.92-0.66-4.2-3.07l-0.31-2.75h13.16l-0.27 32.75-0.26 32.75-2.85 0.33-2.86 0.32z"/>
    <path d="m412.09 424.4c-7.06-2.97-9.47-9.57-3.73-10.23 4.02-0.46 8.5 1.65 10.05 4.72 2.48 4.93-0.83 7.81-6.32 5.51z"/>
    <path d="m331.65 416.65c-0.35-6.13-0.64-34.26-0.65-62.5v-51.35l7.25 0.65c35.55 3.17 57.29 7.97 83.83 18.49 11.88 4.7 33.15 15.26 33.63 16.69 0.17 0.52-6.55 5.08-14.95 10.12-8.39 5.05-20.43 12.55-26.76 16.68-6.33 4.12-14.42 9.15-18 11.17-14.53 8.22-28.43 16.84-31.55 19.57-4.09 3.6-5.45 9.18-5.45 22.42v9.49l-13.35-0.14-13.36-0.13z"/>
    <path d="m465 426.07v-3.07h-6.84c-4.18 0-9.05 0.76-12.49 1.94l-5.65 1.95 2.11-4.2c1.16-2.3 5.84-10.71 10.39-18.69s9.54-17.09 11.09-20.26 3.22-5.63 3.71-5.47c0.49 0.17 5.91 9.29 12.04 20.27 6.14 10.98 12.38 22.05 13.87 24.58 2.76 4.72 2.69 6.99-0.15 4.49-2.63-2.33-10.82-4.61-16.55-4.61-5.14 0-5.41 0.13-5.71 2.75-0.25 2.16-0.91 2.82-3.07 3.07-2.47 0.28-2.75 0-2.75-2.75z"/>
    <path d="m565 428.56c0-2.26 2.17-7.56 3.1-7.56 0.49 0 0.9 1.75 0.9 3.88 0 3.05-0.43 4-2 4.41-1.22 0.32-2 0.03-2-0.73z"/>
   </g>
  </g>
 </g>
</svg>
